<?xml version="1.0" standalone="no"?>
<!DOCTYPE svg PUBLIC "-//W3C//DTD SVG 20010904//EN"
 "http://www.w3.org/TR/2001/REC-SVG-20010904/DTD/svg10.dtd">
<svg version="1.0" xmlns="http://www.w3.org/2000/svg"
 width="512.000000pt" height="512.000000pt" viewBox="0 0 512.000000 512.000000"
 preserveAspectRatio="xMidYMid meet">
<metadata>
Created by potrace 1.11, written by Peter Selinger 2001-2013
</metadata>
<g transform="translate(0.000000,512.000000) scale(0.100000,-0.100000)"
fill="#000000" stroke="none">
<path d="M0 2560 l0 -2560 2560 0 2560 0 0 2560 0 2560 -2560 0 -2560 0 0
-2560z m1995 2230 c22 -67 30 -80 48 -80 21 -1 21 -1 4 -14 -26 -20 -6 -28 86
-35 21 -2 4 -73 -28 -121 -19 -29 -35 -58 -35 -65 0 -25 -19 -26 -40 -2 -15
17 -37 27 -69 31 -56 7 -79 22 -84 54 -2 13 -10 28 -18 32 -11 8 -10 12 6 24
11 8 37 20 58 27 44 15 46 27 17 131 -24 86 -25 100 -5 74 14 -19 15 -19 15 8
0 45 17 21 45 -64z m-370 -47 c29 -30 58 -83 69 -125 7 -29 -14 -58 -41 -58
-34 0 -103 102 -103 153 0 63 30 74 75 30z m475 -33 c-18 -12 -30 -13 -30 -2
0 4 10 9 22 9 18 2 20 0 8 -7z m25 -367 c9 -32 20 -67 25 -78 5 -11 14 -40 19
-65 6 -25 24 -85 41 -135 17 -49 46 -152 64 -228 19 -79 41 -146 52 -158 10
-11 23 -34 29 -52 7 -18 28 -75 48 -127 55 -145 75 -227 80 -320 5 -82 7 -90
79 -230 41 -80 92 -194 114 -253 l39 -108 13 53 c8 29 25 103 38 163 l23 110
-6 -90 c-10 -172 -13 -211 -23 -325 -5 -63 -13 -151 -16 -195 -3 -43 -9 -86
-14 -95 -4 -8 -11 -46 -15 -85 -4 -38 -18 -133 -31 -210 -13 -77 -33 -204 -44
-283 -19 -131 -20 -147 -6 -190 28 -89 29 -106 5 -128 -45 -41 -259 -27 -589
37 -115 22 -160 37 -160 50 0 5 12 9 28 8 15 -1 60 5 99 12 65 12 78 11 120
-4 79 -28 126 -23 172 19 35 31 40 40 38 77 -1 28 -7 46 -19 55 -28 20 -24 70
7 82 22 9 25 15 25 63 0 52 -1 54 -25 49 -21 -4 -27 1 -40 31 -8 20 -12 43 -9
51 9 24 51 20 59 -5 14 -42 26 0 29 94 l1 59 32 -5 c31 -5 32 -5 22 21 -6 15
-17 34 -25 43 -12 13 -12 29 -3 95 6 43 17 104 25 134 22 87 17 195 -18 368
-35 176 -38 240 -18 358 l14 82 -34 88 c-19 49 -39 98 -46 109 -6 11 -12 56
-13 101 -1 58 -8 100 -26 152 -14 39 -25 82 -25 94 -1 28 -22 108 -33 126 -5
7 -12 49 -17 93 -5 58 -14 89 -29 110 -24 32 -101 290 -101 336 0 45 12 103
21 103 4 0 15 -26 24 -57z m354 -444 c31 -90 -10 -177 -45 -94 -17 40 -18 79
-4 106 16 28 37 23 49 -12z m1284 -191 c9 -26 18 -98 22 -178 3 -74 11 -180
17 -235 13 -121 3 -268 -22 -329 -8 -17 -9 -13 -9 19 0 108 -10 245 -20 261
-6 11 -11 15 -11 9 0 -5 -9 -21 -20 -35 l-20 -25 2 41 c1 48 -7 65 -27 57 -9
-3 -15 1 -15 11 0 23 -14 20 -25 -6 -6 -12 -16 -24 -23 -26 -11 -3 -12 0 -3
16 6 10 8 21 6 24 -8 8 -13 68 -6 68 4 0 7 9 8 21 2 18 99 323 110 342 10 17
22 5 36 -35z m-1653 -64 c0 -8 -6 -14 -13 -14 -22 0 -37 22 -37 55 l1 30 24
-28 c14 -15 25 -35 25 -43z m1020 -149 c0 -6 -6 -20 -14 -30 -12 -16 -16 -17
-30 -6 -21 17 -20 45 1 66 16 16 17 16 30 -1 7 -10 13 -23 13 -29z m-2047
-194 c24 -41 142 -197 280 -370 26 -33 47 -69 47 -80 0 -19 -5 -21 -46 -17
-25 2 -51 9 -57 15 -17 17 -41 13 -66 -11 -21 -19 -23 -28 -18 -79 3 -41 16
-78 39 -121 41 -75 133 -273 143 -308 4 -14 -12 4 -36 40 -71 108 -225 470
-263 620 -12 47 -25 90 -29 96 -13 22 -37 139 -37 185 0 67 15 77 43 30z
m2654 -133 c-3 -7 -5 -2 -5 12 0 14 2 19 5 13 2 -7 2 -19 0 -25z m658 -255
c-47 -210 -65 -280 -79 -308 -9 -16 -16 -36 -16 -43 0 -7 -4 -11 -9 -7 -6 3
-8 13 -6 23 2 9 7 33 11 52 l7 35 -32 -42 c-34 -47 -56 -56 -48 -20 18 81 131
375 149 390 36 30 43 7 23 -80z m-2275 45 c24 -40 25 -52 4 -72 -27 -27 -51
-20 -64 19 -10 30 -9 40 4 60 22 33 32 31 56 -7z m737 -10 c-3 -8 -6 -5 -6 6
-1 11 2 17 5 13 3 -3 4 -12 1 -19z m-697 -134 c0 -26 -17 -33 -26 -9 -8 20 3
48 16 40 5 -3 10 -17 10 -31z m2049 -455 c-21 -66 -69 -151 -69 -123 0 12 73
165 77 161 2 -2 -2 -19 -8 -38z m-830 -203 c10 -11 9 -21 -4 -45 -17 -33 -49
-41 -59 -15 -9 25 -7 33 14 54 24 24 34 25 49 6z m-2717 -208 c57 -40 121 -87
144 -105 23 -18 48 -33 56 -33 19 0 285 -128 293 -140 9 -15 6 -14 -121 47
-68 32 -131 55 -147 54 -15 -1 -42 6 -60 15 -83 43 -297 206 -297 226 0 20 38
2 132 -64z m2695 -10 c12 -13 35 -53 51 -90 17 -38 36 -68 43 -68 6 0 38 -18
70 -40 32 -22 70 -40 84 -40 22 0 24 -3 16 -18 -33 -62 -253 -234 -273 -214
-7 7 -3 40 11 100 29 124 27 189 -9 292 -17 46 -30 88 -30 92 0 15 16 8 37
-14z m312 -107 c28 -18 -16 -101 -53 -101 -8 0 -22 7 -30 16 -14 14 -14 18 -1
44 22 43 55 59 84 41z"/>
</g>
</svg>
